[Header]
FileType HTR
DataType HTRS
FileVersion 1
NumSegments 64
NumFrames 4
DataFrameRate 30
EulerRotationOrder ZYX
CalibrationUnits mm
RotationUnits Degrees
GlobalAxisofGravity Y
BoneLengthAxis Y
ScaleFactor 1.0
[SegmentNames&Hierarchy]
Hips	GLOBAL
Spine	Hips
Spine1	Spine
Spine2	Spine1
Neck	Spine2
Head	Neck
LeftEye	Head
RightEye	Head
LeftShoulder	Spine2
LeftArm	LeftShoulder
LeftForeArm	LeftArm
LeftHand	LeftForeArm
LeftHandThumb1	LeftHand
LeftHandThumb2	LeftHandThumb1
LeftHandThumb3	LeftHandThumb2
LeftHandThumb4	LeftHandThumb3
LeftHandIndex1	LeftHand
LeftHandIndex2	LeftHandIndex1
LeftHandIndex3	LeftHandIndex2
LeftHandIndex4	LeftHandIndex3
LeftHandMiddle1	LeftHand
LeftHandMiddle2	LeftHandMiddle1
LeftHandMiddle3	LeftHandMiddle2
LeftHandMiddle4	LeftHandMiddle3
LeftHandRing1	LeftHand
LeftHandRing2	LeftHandRing1
LeftHandRing3	LeftHandRing2
LeftHandRing4	LeftHandRing3
LeftHandPinky1	LeftHand
LeftHandPinky2	LeftHandPinky1
LeftHandPinky3	LeftHandPinky2
LeftHandPinky4	LeftHandPinky3
RightShoulder	Spine2
RightArm	RightShoulder
RightForeArm	RightArm
RightHand	RightForeArm
RightHandPinky1	RightHand
RightHandPinky2	RightHandPinky1
RightHandPinky3	RightHandPinky2
RightHandPinky4	RightHandPinky3
RightHandRing1	RightHand
RightHandRing2	RightHandRing1
RightHandRing3	RightHandRing2
RightHandRing4	RightHandRing3
RightHandMiddle1	RightHand
RightHandMiddle2	RightHandMiddle1
RightHandMiddle3	RightHandMiddle2
RightHandMiddle4	RightHandMiddle3
RightHandIndex1	RightHand
RightHandIndex2	RightHandIndex1
RightHandIndex3	RightHandIndex2
RightHandIndex4	RightHandIndex3
RightHandThumb1	RightHand
RightHandThumb2	RightHandThumb1
RightHandThumb3	RightHandThumb2
RightHandThumb4	RightHandThumb3
LeftUpLeg	Hips
LeftLeg	LeftUpLeg
LeftFoot	LeftLeg
LeftToeBase	LeftFoot
RightUpLeg	Hips
RightLeg	RightUpLeg
RightFoot	RightLeg
RightToeBase	RightFoot
[BasePosition]
Hips	0	0	0	0	0	0	1
Spine	0	0	0	0	0	0	1
Spine1	0	0	0	0	0	0	1
Spine2	0	0	0	0	0	0	1
Neck	0	0	0	0	0	0	1
Head	0	0	0	0	0	0	1
LeftEye	0	0	0	0	0	0	1
RightEye	0	0	0	0	0	0	1
LeftShoulder	0	0	0	0	0	0	1
LeftArm	0	0	0	0	0	0	1
LeftForeArm	0	0	0	0	0	0	1
LeftHand	0	0	0	0	0	0	1
LeftHandThumb1	0	0	0	0	0	0	1
LeftHandThumb2	0	0	0	0	0	0	1
LeftHandThumb3	0	0	0	0	0	0	1
LeftHandThumb4	0	0	0	0	0	0	1
LeftHandIndex1	0	0	0	0	0	0	1
LeftHandIndex2	0	0	0	0	0	0	1
LeftHandIndex3	0	0	0	0	0	0	1
LeftHandIndex4	0	0	0	0	0	0	1
LeftHandMiddle1	0	0	0	0	0	0	1
LeftHandMiddle2	0	0	0	0	0	0	1
LeftHandMiddle3	0	0	0	0	0	0	1
LeftHandMiddle4	0	0	0	0	0	0	1
LeftHandRing1	0	0	0	0	0	0	1
LeftHandRing2	0	0	0	0	0	0	1
LeftHandRing3	0	0	0	0	0	0	1
LeftHandRing4	0	0	0	0	0	0	1
LeftHandPinky1	0	0	0	0	0	0	1
LeftHandPinky2	0	0	0	0	0	0	1
LeftHandPinky3	0	0	0	0	0	0	1
LeftHandPinky4	0	0	0	0	0	0	1
RightShoulder	0	0	0	0	0	0	1
RightArm	0	0	0	0	0	0	1
RightForeArm	0	0	0	0	0	0	1
RightHand	0	0	0	0	0	0	1
RightHandPinky1	0	0	0	0	0	0	1
RightHandPinky2	0	0	0	0	0	0	1
RightHandPinky3	0	0	0	0	0	0	1
RightHandPinky4	0	0	0	0	0	0	1
RightHandRing1	0	0	0	0	0	0	1
RightHandRing2	0	0	0	0	0	0	1
RightHandRing3	0	0	0	0	0	0	1
RightHandRing4	0	0	0	0	0	0	1
RightHandMiddle1	0	0	0	0	0	0	1
RightHandMiddle2	0	0	0	0	0	0	1
RightHandMiddle3	0	0	0	0	0	0	1
RightHandMiddle4	0	0	0	0	0	0	1
RightHandIndex1	0	0	0	0	0	0	1
RightHandIndex2	0	0	0	0	0	0	1
RightHandIndex3	0	0	0	0	0	0	1
RightHandIndex4	0	0	0	0	0	0	1
RightHandThumb1	0	0	0	0	0	0	1
RightHandThumb2	0	0	0	0	0	0	1
RightHandThumb3	0	0	0	0	0	0	1
RightHandThumb4	0	0	0	0	0	0	1
LeftUpLeg	0	0	0	0	0	0	1
LeftLeg	0	0	0	0	0	0	1
LeftFoot	0	0	0	0	0	0	1
LeftToeBase	0	0	0	0	0	0	1
RightUpLeg	0	0	0	0	0	0	1
RightLeg	0	0	0	0	0	0	1
RightFoot	0	0	0	0	0	0	1
RightToeBase	0	0	0	0	0	0	1
[Hips]
48	1.612684608	798.4385986	180.8940125	-3.718581438	0.07730907202	-1.835584402	1.0
49	1.532223225	827.2263184	152.8780823	-3.159243822	0.0380692482	-1.712099075	1.0
50	1.348178387	855.2271729	126.0215683	-2.506624699	0.02996293083	-1.469783425	1.0
51	1.096119642	882.3013916	100.0345535	-1.823933363	0.03411844	-1.165297627	1.0
[Spine]
48	0	101.8159943	1.315000057	8.976260185	16.54656601	4.486878395	1.0
49	0	101.8159943	1.315000057	8.580483437	15.4179697	4.069161415	1.0
50	0	101.8159943	1.315000057	8.523777962	12.24458599	3.338398695	1.0
51	0	101.8159943	1.315000057	8.405042648	7.498652458	2.301213026	1.0
[Spine1]
48	0	100.8349991	-10.00800037	-9.222372055	16.73127747	-2.735342026	1.0
49	0	100.8349991	-10.00800037	-8.535271645	15.55293274	-2.348806143	1.0
50	0	100.8349991	-10.00800037	-8.523319244	12.33904743	-1.871013999	1.0
51	0	100.8349991	-10.00800037	-8.407240868	7.569812775	-1.137849212	1.0
[Spine2]
48	0	91	-13.73399925	-0.09212424606	16.94658089	-0.02853396721	1.0
49	0	91	-13.73399925	0.02058711834	15.72430038	0.005921526812	1.0
50	0	91	-13.73399925	0.001735208905	12.47778893	0.0004419068573	1.0
51	0	91	-13.73399925	-0.0001174989084	7.654314995	-1.585917198e-05	1.0
[Neck]
48	0	166.7169952	-25.16200066	0.5772982836	-17.01664352	0.7395985126	1.0
49	0	166.7169952	-25.16200066	0.5414488316	-15.77428055	0.5890592337	1.0
50	0	166.7169952	-25.16200066	0.5213934779	-12.51044464	0.3788824677	1.0
51	0	166.7169952	-25.16200066	0.4595127106	-7.668846607	0.1700783372	1.0
[Head]
48	0	96.17900085	16.84999847	1.711271286	-33.97550201	0.2768613398	1.0
49	0	96.17900085	16.84999847	1.774225235	-31.55747795	0.1231287494	1.0
50	0	96.17900085	16.84999847	1.375090241	-25.01980209	0.0872374624	1.0
51	0	96.17900085	16.84999847	1.007327676	-15.33680439	0.03754615039	1.0
[LeftEye]
48	30.6760006	64.09500122	92.83599854	0	0	0	1.0
49	30.6760006	64.09500122	92.83599854	0	0	0	1.0
50	30.6760006	64.09500122	92.83599854	0	0	0	1.0
51	30.6760006	64.09500122	92.83599854	0	0	0	1.0
[RightEye]
48	-30.6760006	64.09500122	92.83499908	0	0	0	1.0
49	-30.6760006	64.09500122	92.83499908	0	0	0	1.0
50	-30.6760006	64.09500122	92.83499908	0	0	0	1.0
51	-30.6760006	64.09500122	92.83499908	0	0	0	1.0
[LeftShoulder]
48	45.70400238	109.4599991	-26.28000069	-0.01264256798	9.590039554e-06	-0.1956101507	1.0
49	45.70400238	109.4599991	-26.28000069	0.00244322326	-4.183768397e-06	0.04432797804	1.0
50	45.70400238	109.4599991	-26.28000069	-0.0001007094252	1.021510707e-05	0.00402628677	1.0
51	45.70400238	109.4599991	-26.28000069	-0.0003512021503	-1.946343218e-06	1.042630174e-05	1.0
[LeftArm]
48	105.923996	-5.24600029	-22.32099915	0.1162274182	0.0006282705581	0.2923080325	1.0
49	105.923996	-5.24600029	-22.32099915	0.8790697455	-7.97921457e-05	-0.06601942331	1.0
50	105.923996	-5.24600029	-22.32099915	4.945330143	6.694075273e-05	-0.005830731243	1.0
51	105.923996	-5.24600029	-22.32099915	12.22223186	-6.525352774e-07	0.0001671738573	1.0
[LeftForeArm]
48	278.414978	-0.0009999999311	0	4.491490557e-08	-98.28884888	-0.0001979957451	1.0
49	278.414978	-0.0009999999311	0	-7.324204034e-07	-100.4440765	-0.0001976318308	1.0
50	278.414978	-0.0009999999311	0	2.807620604e-06	-100.0334854	-0.0002014160273	1.0
51	278.414978	-0.0009999999311	0	1.525878088e-05	-99.99999237	-0.0002136230469	1.0
[LeftHand]
48	283.2879944	0	0	-5.97623539	-2.343327045	3.565091133	1.0
49	283.2879944	0	0	-5.875547886	-2.349121571	3.316625595	1.0
50	283.2879944	0	0	-5.892456055	-2.348134756	3.358354092	1.0
51	283.2879944	0	0	-5.894140244	-2.348042011	3.362514257	1.0
[LeftHandThumb1]
48	24.6609993	-15.75	26.8239994	-6.636013508	-5.588461399	5.398771286	1.0
49	24.6609993	-15.75	26.8239994	-6.488725185	-5.595834255	5.238691807	1.0
50	24.6609993	-15.75	26.8239994	-6.513474941	-5.594583988	5.265564919	1.0
51	24.6609993	-15.75	26.8239994	-6.515937805	-5.594448566	5.26824522	1.0
[LeftHandThumb2]
48	32.29800034	-18.64699936	18.64699936	6.290427208	12.45489979	2.694345474	1.0
49	32.29800034	-18.64699936	18.64699936	6.45158577	12.42526436	2.710129499	1.0
50	32.29800034	-18.64699936	18.64699936	6.424522877	12.43020916	2.707554102	1.0
51	32.29800034	-18.64699936	18.64699936	6.421833515	12.430686	2.707371235	1.0
[LeftHandThumb3]
48	26.52600098	-15.31499958	15.31499958	-7.288673878	1.28333497	13.08567142	1.0
49	26.52600098	-15.31499958	15.31499958	-7.225969315	1.256282687	13.09760666	1.0
50	26.52600098	-15.31499958	15.31499958	-7.236515045	1.260818601	13.09567547	1.0
51	26.52600098	-15.31499958	15.31499958	-7.237569809	1.261276364	13.09554195	1.0
[LeftHandThumb4]
48	19.54599953	-11.28499985	11.28499985	0	0	0	1.0
49	19.54599953	-11.28499985	11.28499985	0	0	0	1.0
50	19.54599953	-11.28499985	11.28499985	0	0	0	1.0
51	19.54599953	-11.28499985	11.28499985	0	0	0	1.0
[LeftHandIndex1]
48	91.09299469	-5.170999527	22.60099792	-0.05495379493	2.639130831	-2.730301142	1.0
49	91.09299469	-5.170999527	22.60099792	-0.07649225742	2.685670614	-3.19243598	1.0
50	91.09299469	-5.170999527	22.60099792	-0.07297734916	2.677801371	-3.114822388	1.0
51	91.09299469	-5.170999527	22.60099792	-0.07261766493	2.67701745	-3.107088566	1.0
[LeftHandIndex2]
48	36.76399994	0	0	-8.22453444e-07	-6.458598364e-06	4.876697858e-06	1.0
49	36.76399994	0	0	-8.386486456e-07	-5.804369266e-06	-3.159209518e-05	1.0
50	36.76399994	0	0	-3.047775863e-07	1.81060534e-06	-6.720168312e-05	1.0
51	36.76399994	0	0	-8.216474612e-07	-1.064275352e-07	8.338323596e-07	1.0
[LeftHandIndex3]
48	28.83100128	0	0	6.981212209e-06	-0.01286506746	0.1261248887	1.0
49	28.83100128	0	0	1.209236052e-05	0.002915477613	-0.0285741277	1.0
50	28.83100128	0	0	-9.000614227e-07	0.0002652367693	-0.00258994312	1.0
51	28.83100128	0	0	-7.951386796e-16	1.590277359e-15	-1.590277359e-15	1.0
[LeftHandIndex4]
48	23.92700005	0	0	0	0	0	1.0
49	23.92700005	0	0	0	0	0	1.0
50	23.92700005	0	0	0	0	0	1.0
51	23.92700005	0	0	0	0	0	1.0
[LeftHandMiddle1]
48	95.33399963	0	0	-0.05367820337	2.636398792	-2.703220844	1.0
49	95.33399963	0	0	-0.07676169276	2.686291218	-3.198572874	1.0
50	95.33399963	0	0	-0.07300274819	2.677867651	-3.115377426	1.0
51	95.33399963	0	0	-0.07261766493	2.67701745	-3.107088566	1.0
[LeftHandMiddle2]
48	36.98199844	0	0	1.583451535e-06	5.468624749e-06	-2.125039373e-06	1.0
49	36.98199844	0	0	-9.575539934e-07	-7.769530384e-06	-4.165132736e-07	1.0
50	36.98199844	0	0	-2.246494887e-06	-1.517843884e-05	-8.754826695e-07	1.0
51	36.98199844	0	0	-8.216474612e-07	-1.064275352e-07	8.338323596e-07	1.0
[LeftHandMiddle3]
48	29.50900078	0	0	5.639242318e-06	-0.01399205811	0.1370430887	1.0
49	29.50900078	0	0	1.440252072e-05	0.00316892541	-0.03105013445	1.0
50	29.50900078	0	0	1.137477284e-06	0.0003008997883	-0.002815072192	1.0
51	29.50900078	0	0	6.184513381e-07	4.257101693e-07	-3.335329211e-06	1.0
[LeftHandMiddle4]
48	28.3390007	0	0	0	0	0	1.0
49	28.3390007	0	0	0	0	0	1.0
50	28.3390007	0	0	0	0	0	1.0
51	28.3390007	0	0	0	0	0	1.0
[LeftHandRing1]
48	91.04499817	-0.4390000105	-18.65100098	-0.05565866083	2.640635967	-2.74527812	1.0
49	91.04499817	-0.4390000105	-18.65100098	-0.07634199411	2.685321808	-3.189044714	1.0
50	91.04499817	-0.4390000105	-18.65100098	-0.07296353579	2.677767992	-3.114515305	1.0
51	91.04499817	-0.4390000105	-18.65100098	-0.07261766493	2.67701745	-3.107088566	1.0
[LeftHandRing2]
48	31.54000092	0	0	-3.422067039e-07	2.463485487e-07	4.264058134e-06	1.0
49	31.54000092	0	0	-2.08086206e-07	-2.934340841e-07	-9.813908946e-06	1.0
50	31.54000092	0	0	-1.081665175e-07	4.290674553e-07	-2.769428102e-05	1.0
51	31.54000092	0	0	6.36177333e-07	3.804572543e-06	-2.382959792e-05	1.0
[LeftHandRing3]
48	29.37700081	0	0	8.487641935e-06	-0.01374890469	0.134821251	1.0
49	29.37700081	0	0	1.541481288e-05	0.003122069407	-0.03054263443	1.0
50	29.37700081	0	0	3.772102843e-07	0.0002867584408	-0.002766324207	1.0
51	29.37700081	0	0	-8.216474043e-07	-1.064274997e-07	8.338322459e-07	1.0
[LeftHandRing4]
48	26.47500038	0	0	0	0	0	1.0
49	26.47500038	0	0	0	0	0	1.0
50	26.47500038	0	0	0	0	0	1.0
51	26.47500038	0	0	0	0	0	1.0
[LeftHandPinky1]
48	80.77799988	-4.887000084	-38.06099701	-0.05826393142	2.646196842	-2.80067277	1.0
49	80.77799988	-4.887000084	-38.06099701	-0.07578656077	2.684039354	-3.176499367	1.0
50	80.77799988	-4.887000084	-38.06099701	-0.0729110986	2.677657604	-3.11337781	1.0
51	80.77799988	-4.887000084	-38.06099701	-0.07261766493	2.67701745	-3.107088566	1.0
[LeftHandPinky2]
48	36	0	0	1.423514249e-07	1.646469855e-06	4.90856246e-06	1.0
49	36	0	0	-8.402039384e-07	-8.103381333e-06	-2.361573934e-05	1.0
50	36	0	0	-2.03009904e-06	-1.745878035e-05	-5.056994632e-05	1.0
51	36	0	0	-8.216474612e-07	-1.064275352e-07	8.338323596e-07	1.0
[LeftHandPinky3]
48	21.14200211	0	0	7.283017112e-06	-0.01391145587	0.1364130676	1.0
49	21.14200211	0	0	1.681746835e-05	0.003172341036	-0.03090120107	1.0
50	21.14200211	0	0	3.588976597e-06	0.0003052722896	-0.002797246212	1.0
51	21.14200211	0	0	2.052641548e-06	-3.192826341e-07	2.501496965e-06	1.0
[LeftHandPinky4]
48	19.75699997	0	0	0	0	0	1.0
49	19.75699997	0	0	0	0	0	1.0
50	19.75699997	0	0	0	0	0	1.0
51	19.75699997	0	0	0	0	0	1.0
[RightShoulder]
48	-45.70000076	109.4620056	-26.28000069	-0.01264272816	-5.026754479e-06	0.1956121027	1.0
49	-45.70000076	109.4620056	-26.28000069	0.002443623729	2.947121857e-06	-0.04432769865	1.0
50	-45.70000076	109.4620056	-26.28000069	-9.93291178e-05	-1.437952619e-07	-0.004025160335	1.0
51	-45.70000076	109.4620056	-26.28000069	-0.000351130031	-1.217800445e-06	-9.970860447e-06	1.0
[RightArm]
48	-105.9280014	-5.248000145	-22.32099915	0.1162281483	-0.0005538332043	-0.29216519	1.0
49	-105.9280014	-5.248000145	-22.32099915	0.879070282	0.0001494405151	0.06614480168	1.0
50	-105.9280014	-5.248000145	-22.32099915	4.945329666	-9.488478099e-06	0.005919556133	1.0
51	-105.9280014	-5.248000145	-22.32099915	12.22223377	3.771086267e-05	-8.326435636e-05	1.0
[RightForeArm]
48	-278.414978	0	0	-1.661426552e-08	98.28868103	6.466817467e-06	1.0
49	-278.414978	0	0	0	100.4438934	-1.098631742e-06	1.0
50	-278.414978	0	0	0	100.0332718	0	1.0
51	-278.414978	0	0	2.383183942e-17	99.99979401	1.588789625e-17	1.0
[RightHand]
48	-283.2879944	0	0.0009999999311	-4.764401913	2.27108264	-2.80783534	1.0
49	-283.2879944	0	0.0009999999311	-4.663650513	2.275553226	-2.559497118	1.0
50	-283.2879944	0	0.0009999999311	-4.68057251	2.274799585	-2.601208687	1.0
51	-283.2879944	0	0.0009999999311	-4.682258606	2.274730206	-2.605364799	1.0
[RightHandPinky1]
48	-80.76699829	-4.885000229	-38.06000137	-0.03888786212	-2.454416037	2.106380939	1.0
49	-80.76699829	-4.885000229	-38.06000137	-0.05513655767	-2.484552145	2.482847691	1.0
50	-80.76699829	-4.885000229	-38.06000137	-0.05246105418	-2.479464769	2.419616461	1.0
51	-80.76699829	-4.885000229	-38.06000137	-0.05218885839	-2.478949547	2.413315296	1.0
[RightHandPinky2]
48	-36	0	0.0009999999311	-2.43591046e-07	0.001595098409	6.048803698e-06	1.0
49	-36	0	0.0009999999311	-3.087857081e-08	0.001593372668	1.727222661e-05	1.0
50	-36	0	0.0009999999311	6.489929092e-07	0.001591528533	1.596795482e-05	1.0
51	-36	0	0.0009999999311	1.906057264e-06	0.001592291403	-3.686639261e-08	1.0
[RightHandPinky3]
48	-21.14200211	0	0	7.406677923e-06	0.01106051356	-0.1366716921	1.0
49	-21.14200211	0	0	1.183662425e-05	-0.002507794648	0.03096383251	1.0
50	-21.14200211	0	0	-1.783615176e-06	-0.0002236598084	0.002807251876	1.0
51	-21.14200211	0	0	3.598022431e-07	-9.887410357e-08	8.350718304e-07	1.0
[RightHandPinky4]
48	-19.75699997	0	0	0	0	0	1.0
49	-19.75699997	0	0	0	0	0	1.0
50	-19.75699997	0	0	0	0	0	1.0
51	-19.75699997	0	0	0	0	0	1.0
[RightHandRing1]
48	-91.03599548	-0.4390000105	-18.65100098	-0.03647568077	-2.44837904	2.050893784	1.0
49	-91.03599548	-0.4390000105	-18.65100098	-0.05565711111	-2.483973742	2.495415449	1.0
50	-91.03599548	-0.4390000105	-18.65100098	-0.05251070112	-2.477968216	2.420753956	1.0
51	-91.03599548	-0.4390000105	-18.65100098	-0.05218908563	-2.47735548	2.413314581	1.0
[RightHandRing2]
48	-31.54000092	0	0	1.153403062e-07	-2.766954665e-08	2.250416583e-05	1.0
49	-31.54000092	0	0	3.525736503e-08	-1.448920557e-07	2.705774023e-05	1.0
50	-31.54000092	0	0	4.024325619e-07	-6.443857501e-07	5.6788042e-07	1.0
51	-31.54000092	0	0	1.692128649e-06	-3.87111686e-06	1.68258066e-05	1.0
[RightHandRing3]
48	-29.37700081	0	0	6.875754025e-06	0.01092662662	-0.1350784302	1.0
49	-29.37700081	0	0	1.139358392e-05	-0.002480366034	0.03060202301	1.0
50	-29.37700081	0	0	-1.499171503e-06	-0.0002141492878	0.002774133114	1.0
51	-29.37700081	0	0	0	-0	1.590277359e-15	1.0
[RightHandRing4]
48	-26.47500038	0	0	0	0	0	1.0
49	-26.47500038	0	0	0	0	0	1.0
50	-26.47500038	0	0	0	0	0	1.0
51	-26.47500038	0	0	0	0	0	1.0
[RightHandMiddle1]
48	-95.32500458	0	0	-0.034641698	-2.445018291	2.008762598	1.0
49	-95.32500458	0	0	-0.05604925007	-2.484750509	2.504957676	1.0
50	-95.32500458	0	0	-0.05254857987	-2.478038311	2.421620131	1.0
51	-95.32500458	0	0	-0.0521893464	-2.47735548	2.41331625	1.0
[RightHandMiddle2]
48	-36.98199844	0	0	-2.083277728e-08	-6.277201692e-07	-1.436145908e-06	1.0
49	-36.98199844	0	0	1.065040109e-07	1.218960961e-06	-2.547389215e-07	1.0
50	-36.98199844	0	0	9.954587767e-07	2.098769301e-06	-7.663716417e-08	1.0
51	-36.98199844	0	0	2.661392273e-06	-1.794760124e-06	-7.107043984e-07	1.0
[RightHandMiddle3]
48	-29.50900078	0	0	5.789579518e-06	0.009100063704	-0.1373072416	1.0
49	-29.50900078	0	0	1.061030707e-05	-0.004537127446	0.03110773675	1.0
50	-29.50900078	0	0	-5.897771871e-07	-0.002246733755	0.002820063615	1.0
51	-29.50900078	0	0	1.782206027e-06	-0.002030151431	2.452609351e-07	1.0
[RightHandMiddle4]
48	-28.3390007	0	0.0009999999311	0	0	0	1.0
49	-28.3390007	0	0.0009999999311	0	0	0	1.0
50	-28.3390007	0	0.0009999999311	0	0	0	1.0
51	-28.3390007	0	0.0009999999311	0	0	0	1.0
[RightHandIndex1]
48	-91.08300018	-5.167999744	22.60099792	-0.03582203016	-2.447193861	2.035891771	1.0
49	-91.08300018	-5.167999744	22.60099792	-0.05579691753	-2.484246016	2.498814106	1.0
50	-91.08300018	-5.167999744	22.60099792	-0.05252465606	-2.477970362	2.421064615	1.0
51	-91.08300018	-5.167999744	22.60099792	-0.05218791962	-2.477357388	2.41331625	1.0
[RightHandIndex2]
48	-36.76399994	0	0	-5.347541787e-08	4.592549985e-08	-3.237711098e-06	1.0
49	-36.76399994	0	0	6.387242024e-08	1.112984023e-06	5.231665767e-08	1.0
50	-36.76399994	0	0	1.241261032e-07	2.393965588e-06	1.125301665e-07	1.0
51	-36.76399994	0	0	-7.951386796e-16	-3.180554719e-15	1.590277359e-15	1.0
[RightHandIndex3]
48	-28.83100128	0	0	5.040142696e-06	0.01023644302	-0.1263651848	1.0
49	-28.83100128	0	0	1.135796629e-05	-0.002316666069	0.02862722054	1.0
50	-28.83100128	0	0	3.164539066e-06	-0.0002120940044	0.002593215788	1.0
51	-28.83100128	0	0	-7.951386796e-16	-3.180554719e-15	1.590277359e-15	1.0
[RightHandIndex4]
48	-23.92700005	0	0	0	0	0	1.0
49	-23.92700005	0	0	0	0	0	1.0
50	-23.92700005	0	0	0	0	0	1.0
51	-23.92700005	0	0	0	0	0	1.0
[RightHandThumb1]
48	-24.64799881	-15.72700024	26.82600021	-7.656217098	7.61383152	-5.162386894	1.0
49	-24.64799881	-15.72700024	26.82600021	-7.508096218	7.621694565	-4.997276306	1.0
50	-24.64799881	-15.72700024	26.82600021	-7.532984734	7.620361805	-5.024992943	1.0
51	-24.64799881	-15.72700024	26.82600021	-7.53546524	7.620223999	-5.02775526	1.0
[RightHandThumb2]
48	-32.29800034	-18.64699936	18.64699936	6.966236115	-14.12853718	-3.779551268	1.0
49	-32.29800034	-18.64699936	18.64699936	7.127939701	-14.09965324	-3.794982195	1.0
50	-32.29800034	-18.64699936	18.64699936	7.100785255	-14.10446644	-3.792467833	1.0
51	-32.29800034	-18.64699936	18.64699936	7.098089695	-14.10491753	-3.792288303	1.0
[RightHandThumb3]
48	-26.52600098	-15.31399918	15.31399918	-4.001626015	-6.73741436	-14.20718288	1.0
49	-26.52600098	-15.31399918	15.31399918	-3.93886137	-6.709516048	-14.22499084	1.0
50	-26.52600098	-15.31399918	15.31399918	-3.949414015	-6.714197159	-14.22207165	1.0
51	-26.52600098	-15.31399918	15.31399918	-3.950468302	-6.714670658	-14.22184849	1.0
[RightHandThumb4]
48	-19.54599953	-11.28499985	11.28499985	0	0	0	1.0
49	-19.54599953	-11.28499985	11.28499985	0	0	0	1.0
50	-19.54599953	-11.28499985	11.28499985	0	0	0	1.0
51	-19.54599953	-11.28499985	11.28499985	0	0	0	1.0
[LeftUpLeg]
48	82.07800293	-67.51699829	-15.99599934	-24.89664841	-0.8599911332	1.394692063	1.0
49	82.07800293	-67.51699829	-15.99599934	-25.69147301	-0.7266251445	1.323448896	1.0
50	82.07800293	-67.51699829	-15.99599934	-26.04137039	-0.5806905031	1.130493522	1.0
51	82.07800293	-67.51699829	-15.99599934	-25.97887993	-0.4508476853	0.8628926277	1.0
[LeftLeg]
48	0	-443.7049866	2.845999956	85.99211884	0.01326966658	1.31105876	1.0
49	0	-443.7049866	2.845999956	81.20018768	0.1083966196	1.136743069	1.0
50	0	-443.7049866	2.845999956	75.91301727	0.1778875291	0.9229947329	1.0
51	0	-443.7049866	2.845999956	70.18852997	0.2144044638	0.7047195435	1.0
[LeftFoot]
48	0	-444.2789917	-29.8219986	-31.92841721	-0.1867504567	-0.9951494336	1.0
49	0	-444.2789917	-29.8219986	-30.01698494	-0.120859161	-0.7442942858	1.0
50	0	-444.2789917	-29.8219986	-28.21339989	-0.06487610191	-0.4959466457	1.0
51	0	-444.2789917	-29.8219986	-26.38607025	-0.02178663947	-0.2759252191	1.0
[LeftToeBase]
48	0	-87.28699493	107.1060028	-29.79998779	2.70971924e-07	-1.378889181e-08	1.0
49	0	-87.28699493	107.1060028	-26.29728317	2.869499838e-07	-1.655543542e-07	1.0
50	0	-87.28699493	107.1060028	-22.72408485	-5.857890528e-08	-8.892242676e-08	1.0
51	0	-87.28699493	107.1060028	-19.13312149	-1.300613945e-07	6.301359434e-08	1.0
[RightUpLeg]
48	-82.07800293	-67.51699829	-15.99599934	-53.14544296	1.034935951	1.303371549	1.0
49	-82.07800293	-67.51699829	-15.99599934	-51.36876678	0.976413846	1.33424437	1.0
50	-82.07800293	-67.51699829	-15.99599934	-50.07464218	0.8374967575	1.270085573	1.0
51	-82.07800293	-67.51699829	-15.99599934	-47.86319733	0.6610580683	1.126479626	1.0
[RightLeg]
48	0	-443.7049866	2.861999989	28.42794418	-1.11127162	-0.6862008572	1.0
49	0	-443.7049866	2.861999989	30.94992638	-0.9488175511	-0.6370325685	1.0
50	0	-443.7049866	2.861999989	36.22031403	-0.7233368754	-0.5861907601	1.0
51	0	-443.7049866	2.861999989	41.19449615	-0.5196314454	-0.4961067736	1.0
[RightFoot]
48	0	-444.2770081	-29.83799934	28.43495369	-0.03551216051	0.0339564383	1.0
49	0	-444.2770081	-29.83799934	23.57824326	-0.02792843245	0.02182387561	1.0
50	0	-444.2770081	-29.83799934	16.36189461	-0.02222744562	0.01331299264	1.0
51	0	-444.2770081	-29.83799934	8.493524551	-0.01382329687	-0.01708461531	1.0
[RightToeBase]
48	0	-87.28699493	107.1060028	-1.515573604e-05	-2.909377805e-08	-1.999551955e-07	1.0
49	0	-87.28699493	107.1060028	-1.515573604e-05	-2.909377805e-08	-1.999551955e-07	1.0
50	0	-87.28699493	107.1060028	-1.515573604e-05	-2.909377805e-08	-1.999551955e-07	1.0
51	0	-87.28699493	107.1060028	-1.515573604e-05	-2.909377805e-08	-1.999551955e-07	1.0
[EndOfFile]
